<?xml version="1.0" encoding="UTF-8" standalone="no"?>
<svg width="167px" height="59px" viewBox="0 0 167 59" version="1.1" xmlns="http://www.w3.org/2000/svg" xmlns:xlink="http://www.w3.org/1999/xlink" xmlns:sketch="http://www.bohemiancoding.com/sketch/ns">
    <title>Slice 1</title>
    <description>Created with Sketch (http://www.bohemiancoding.com/sketch)</description>
    <defs></defs>
    <g id="Page-1" stroke="none" stroke-width="1" fill="none" fill-rule="evenodd" sketch:type="MSPage">
        <rect d="M4.99797828,-1.77635684e-15 C2.2376711,-1.77635684e-15 0,2.23914879 0,4.99931332 L0,53.4889679 C0,56.2500124 2.2344809,58.4882812 4.99797828,58.4882812 L162.002022,58.4882812 C164.762329,58.4882812 167,56.2491325 167,53.4889679 L167,4.99931332 C167,2.23826882 164.765519,-1.77635684e-15 162.002022,-1.77635684e-15 L4.99797828,-1.77635684e-15 Z M4.99797828,-1.77635684e-15" id="Rectangle-1" fill="#FFFFFF" sketch:type="MSShapeGroup" x="0" y="0" width="167" height="58.4882812" rx="5"></rect>
        <path d="M40,30.8125 C40,32.1250066 39.7994812,33.263016 39.3984375,34.2265625 C38.9973938,35.190109 38.4218788,35.986976 37.671875,36.6171875 C36.9218712,37.247399 36.0026096,37.7187484 34.9140625,38.03125 C33.8255154,38.3437516 32.5937569,38.5 31.21875,38.5 C28.1666514,38.5 25.4895948,37.9479222 23.1875,36.84375 C23.8229198,35.2604088 24.3229148,33.8125066 24.6875,32.5 C24.7500003,32.2812489 24.8124997,32.0937508 24.875,31.9375 L27.21875,32.515625 C27.5000014,32.5781253 27.8020817,32.645833 28.125,32.71875 C28.4479183,32.791667 28.7708317,32.8567705 29.09375,32.9140625 C29.4166683,32.9713545 29.7239569,33.0208331 30.015625,33.0625 C30.3072931,33.1041669 30.5624989,33.125 30.78125,33.125 C31.1354184,33.125 31.4765609,33.1119793 31.8046875,33.0859375 C32.1328141,33.0598957 32.4218738,33.0000005 32.671875,32.90625 C32.9218762,32.8124995 33.1223951,32.6770842 33.2734375,32.5 C33.4244799,32.3229158 33.5,32.0833348 33.5,31.78125 C33.5,31.4166648 33.3281267,31.1093762 32.984375,30.859375 C32.6406233,30.6093738 32.2109401,30.3854177 31.6953125,30.1875 C31.1796849,29.9895823 30.6145864,29.8098966 30,29.6484375 C29.3854136,29.4869784 28.8125027,29.3125009 28.28125,29.125 C27.541663,28.8958322 26.8541698,28.5833353 26.21875,28.1875 C25.5833302,27.7916647 25.0338565,27.3203152 24.5703125,26.7734375 C24.1067685,26.2265598 23.744793,25.6067743 23.484375,24.9140625 C23.223957,24.2213507 23.09375,23.4583375 23.09375,22.625 C23.09375,17.8749763 25.9478881,15.5 31.65625,15.5 C34.3645969,15.5 36.885405,16.0624944 39.21875,17.1875 L37.5,21.96875 C36.4895783,21.708332 35.6901071,21.5026049 35.1015625,21.3515625 C34.5130179,21.2005201 34.0416684,21.088542 33.6875,21.015625 C33.3333316,20.942708 33.0520844,20.8958334 32.84375,20.875 C32.6354156,20.8541666 32.4166678,20.84375 32.1875,20.84375 L31.65625,20.84375 C31.5416661,20.84375 31.4453129,20.8411459 31.3671875,20.8359375 C31.2890621,20.8307291 31.213542,20.828125 31.140625,20.828125 C30.6718727,20.828125 30.3125012,20.8984368 30.0625,21.0390625 C29.8124988,21.1796882 29.6875,21.4687478 29.6875,21.90625 C29.6875,22.5625033 30.2604109,23.0624983 31.40625,23.40625 C34.2291808,24.0625033 36.3671802,25.0156187 37.8203125,26.265625 C39.2734448,27.5156313 40,29.0312411 40,30.8125 C40,30.8125 40,29.0312411 40,30.8125 Z M42.375,16.65625 C42.375,16.1874977 42.4765615,15.7552103 42.6796875,15.359375 C42.8828135,14.9635397 43.15104,14.6223973 43.484375,14.3359375 C43.81771,14.0494777 44.2031228,13.8281258 44.640625,13.671875 C45.0781272,13.5156242 45.5312477,13.4375 46,13.4375 C46.5416694,13.4375 47.033852,13.5338532 47.4765625,13.7265625 C47.919273,13.9192718 48.2968734,14.1692693 48.609375,14.4765625 C48.9218766,14.7838557 49.1640616,15.1276023 49.3359375,15.5078125 C49.5078134,15.8880227 49.59375,16.2708314 49.59375,16.65625 C49.59375,17.1354191 49.4947927,17.5729147 49.296875,17.96875 C49.0989573,18.3645853 48.833335,18.7057277 48.5,18.9921875 C48.166665,19.2786473 47.7838563,19.5026034 47.3515625,19.6640625 C46.9192687,19.8255216 46.4687523,19.90625 46,19.90625 C45.4895808,19.90625 45.013023,19.8229175 44.5703125,19.65625 C44.127602,19.4895825 43.7447933,19.257814 43.421875,18.9609375 C43.0989567,18.664061 42.8437509,18.3203145 42.65625,17.9296875 C42.4687491,17.5390605 42.375,17.1145856 42.375,16.65625 C42.375,16.65625 42.375,17.1145856 42.375,16.65625 Z M52.375,37.15625 C51.114577,37.8854203 49.7187577,38.25 48.1875,38.25 C47.2812455,38.25 46.4739619,38.0989598 45.765625,37.796875 C45.0572881,37.4947902 44.4609399,37.065107 43.9765625,36.5078125 C43.4921851,35.950518 43.1250012,35.2760456 42.875,34.484375 C42.6249988,33.6927044 42.5,32.8125048 42.5,31.84375 L42.5,21.96875 L49.28125,21.96875 L49.28125,31.53125 C49.28125,32.0416692 49.4166653,32.4244779 49.6875,32.6796875 C49.9583347,32.9348971 50.3020813,33.0625 50.71875,33.0625 C51.1354187,33.0625 51.5729144,32.9375012 52.03125,32.6875 C52.03125,32.6875 51.5729144,32.9375012 52.03125,32.6875 L52.375,37.15625 Z M66.96875,35.34375 C65.7291605,37.1145922 63.812513,38 61.21875,38 C60.1874948,38 59.2031297,37.796877 58.265625,37.390625 C57.3281203,36.984373 56.5052119,36.4192745 55.796875,35.6953125 C55.0885381,34.9713505 54.5260437,34.1145883 54.109375,33.125 C53.6927063,32.1354117 53.484375,31.0572975 53.484375,29.890625 C53.484375,28.6718689 53.7005187,27.562505 54.1328125,26.5625 C54.5651063,25.562495 55.1380173,24.7031286 55.8515625,23.984375 C56.5651077,23.2656214 57.385412,22.7109395 58.3125,22.3203125 C59.239588,21.9296855 60.1979117,21.734375 61.1875,21.734375 C61.8437533,21.734375 62.4609346,21.8229158 63.0390625,22 C63.6171904,22.1770842 64.1354144,22.4296859 64.59375,22.7578125 C65.0520856,23.0859391 65.4453109,23.4791644 65.7734375,23.9375 C66.1015641,24.3958356 66.3437492,24.9062472 66.5,25.46875 L66.5,21.734375 L73.25,21.734375 L73.25,33.9375 C73.25,35.6875088 73.0546895,37.2682221 72.6640625,38.6796875 C72.2734355,40.0911529 71.6718791,41.2890576 70.859375,42.2734375 C70.0468709,43.2578174 69.0156313,44.0156223 67.765625,44.546875 C66.5156187,45.0781277 65.0312586,45.34375 63.3125,45.34375 C62.8124975,45.34375 62.2812528,45.3177086 61.71875,45.265625 C61.1562472,45.2135414 60.5625031,45.1354172 59.9375,45.03125 L60.4375,40.25 C61.4791719,40.3750006 62.2083313,40.4375 62.625,40.4375 C63.4270873,40.4375 64.0833308,40.307293 64.59375,40.046875 C65.1041692,39.786457 65.5156234,39.4296898 65.828125,38.9765625 C66.1406266,38.5234352 66.3802075,37.9869823 66.546875,37.3671875 C66.7135425,36.7473927 66.8541661,36.0729203 66.96875,35.34375 C66.96875,35.34375 66.8541661,36.0729203 66.96875,35.34375 Z M66.5,29.875 C66.4791666,29.4583313 66.3776051,29.065106 66.1953125,28.6953125 C66.0130199,28.325519 65.7760431,28.0000014 65.484375,27.71875 C65.1927069,27.4374986 64.8593769,27.2161466 64.484375,27.0546875 C64.1093731,26.8932284 63.718752,26.8125 63.3125,26.8125 C62.8541644,26.8125 62.4296895,26.8984366 62.0390625,27.0703125 C61.6484355,27.2421884 61.3125014,27.4739569 61.03125,27.765625 C60.7499986,28.0572931 60.5286466,28.3958314 60.3671875,28.78125 C60.2057284,29.1666686 60.125,29.5729145 60.125,30 C60.125,30.5104192 60.2213532,30.9635397 60.4140625,31.359375 C60.6067718,31.7552103 60.8567693,32.0885403 61.1640625,32.359375 C61.4713557,32.6302097 61.8151023,32.8359368 62.1953125,32.9765625 C62.5755227,33.1171882 62.9479148,33.1875 63.3125,33.1875 C63.7395855,33.1875 64.1432273,33.1041675 64.5234375,32.9375 C64.9036477,32.7708325 65.2369777,32.5468764 65.5234375,32.265625 C65.8098973,31.9843736 66.0390616,31.658856 66.2109375,31.2890625 C66.3828134,30.919269 66.4791666,30.531252 66.5,30.125 C66.5,30.125 66.4791666,30.531252 66.5,30.125 L66.5,29.875 Z M76.46875,22.203125 L82.90625,22.203125 L82.90625,25.46875 C83.5312531,24.208327 84.3359326,23.2708364 85.3203125,22.65625 C86.3046924,22.0416636 87.4583267,21.734375 88.78125,21.734375 C89.8437553,21.734375 90.7812459,21.9322897 91.59375,22.328125 C92.4062541,22.7239603 93.091143,23.2838505 93.6484375,24.0078125 C94.205732,24.7317745 94.6276027,25.6015574 94.9140625,26.6171875 C95.2005223,27.6328176 95.34375,28.7604105 95.34375,30 L95.34375,38 L88.625,38 L88.625,29.34375 C88.625,28.9270813 88.5859379,28.5416684 88.5078125,28.1875 C88.4296871,27.8333316 88.3046884,27.5286471 88.1328125,27.2734375 C87.9609366,27.0182279 87.744793,26.8203132 87.484375,26.6796875 C87.223957,26.5390618 86.9062519,26.46875 86.53125,26.46875 C86.0729144,26.46875 85.6510436,26.580728 85.265625,26.8046875 C84.8802064,27.028647 84.5442723,27.3020817 84.2578125,27.625 C83.9713527,27.9479183 83.7395842,28.2838524 83.5625,28.6328125 C83.3854158,28.9817726 83.2708336,29.2812488 83.21875,29.53125 L83.21875,38 L76.46875,38 L76.46875,22.203125 Z M97.671875,29.96875 C97.7239586,28.6249933 98.0026016,27.4427134 98.5078125,26.421875 C99.0130234,25.4010366 99.6822875,24.5416702 100.515625,23.84375 C101.348962,23.1458298 102.315099,22.6197934 103.414062,22.265625 C104.513026,21.9114566 105.682285,21.734375 106.921875,21.734375 C108.276048,21.734375 109.515619,21.937498 110.640625,22.34375 C111.765631,22.750002 112.734371,23.3151005 113.546875,24.0390625 C114.359379,24.7630245 114.989581,25.6302033 115.4375,26.640625 C115.885419,27.6510467 116.109375,28.7604106 116.109375,29.96875 C116.109375,30.9479216 115.981772,31.8333294 115.726562,32.625 C115.471353,33.4166706 115.125002,34.1171845 114.6875,34.7265625 C114.249998,35.3359405 113.734378,35.8645811 113.140625,36.3125 C112.546872,36.7604189 111.906253,37.1276027 111.21875,37.4140625 C110.531247,37.7005223 109.820316,37.9114577 109.085938,38.046875 C108.351559,38.1822923 107.619795,38.25 106.890625,38.25 C105.515618,38.25 104.263026,38.0494812 103.132812,37.6484375 C102.002599,37.2473938 101.031254,36.6822953 100.21875,35.953125 C99.4062459,35.2239547 98.778648,34.3515676 98.3359375,33.3359375 C97.893227,32.3203074 97.671875,31.1979228 97.671875,29.96875 C97.671875,29.96875 97.671875,31.1979228 97.671875,29.96875 Z M103.921875,29.96875 C103.921875,30.5520863 104.007812,31.0624978 104.179688,31.5 C104.351563,31.9375022 104.578124,32.3020819 104.859375,32.59375 C105.140626,32.8854181 105.46354,33.1041659 105.828125,33.25 C106.19271,33.3958341 106.562498,33.46875 106.9375,33.46875 C107.312502,33.46875 107.679686,33.3958341 108.039062,33.25 C108.398439,33.1041659 108.721353,32.8854181 109.007812,32.59375 C109.294272,32.3020819 109.523437,31.9375022 109.695312,31.5 C109.867188,31.0624978 109.953125,30.5520863 109.953125,29.96875 C109.953125,29.3854137 109.867188,28.8750022 109.695312,28.4375 C109.523437,27.9999978 109.294272,27.6380223 109.007812,27.3515625 C108.721353,27.0651027 108.398439,26.8489591 108.039062,26.703125 C107.679686,26.5572909 107.312502,26.484375 106.9375,26.484375 C106.562498,26.484375 106.19271,26.5572909 105.828125,26.703125 C105.46354,26.8489591 105.140626,27.0651027 104.859375,27.3515625 C104.578124,27.6380223 104.351563,27.9999978 104.179688,28.4375 C104.007812,28.8750022 103.921875,29.3854137 103.921875,29.96875 C103.921875,29.96875 103.921875,29.3854137 103.921875,29.96875 Z M127.265625,18.25 C126.640622,18.25 126.153648,18.4036443 125.804688,18.7109375 C125.455727,19.0182307 125.28125,19.468747 125.28125,20.0625 C125.28125,20.6250028 125.46354,21.2604131 125.828125,21.96875 L130.296875,21.96875 L130.296875,25.9375 L126.265625,25.9375 L126.265625,38 L119.515625,38 L119.515625,25.9375 L117.515625,25.9375 L117.515625,21.96875 L119.515625,21.96875 C119.515625,20.4791592 119.622395,19.197922 119.835938,18.125 C120.04948,17.052078 120.390623,16.1666702 120.859375,15.46875 C121.328127,14.7708298 121.932288,14.2578141 122.671875,13.9296875 C123.411462,13.6015609 124.307286,13.4375 125.359375,13.4375 C127.005217,13.4375 128.744783,13.8437459 130.578125,14.65625 L130.359375,19 C129.140619,18.4999975 128.109379,18.25 127.265625,18.25 Z M141.171875,18.25 C140.546872,18.25 140.059898,18.4036443 139.710938,18.7109375 C139.361977,19.0182307 139.1875,19.468747 139.1875,20.0625 C139.1875,20.6250028 139.36979,21.2604131 139.734375,21.96875 L144.203125,21.96875 L144.203125,25.9375 L140.171875,25.9375 L140.171875,38 L133.421875,38 L133.421875,25.9375 L131.421875,25.9375 L131.421875,21.96875 L133.421875,21.96875 C133.421875,20.4791592 133.528645,19.197922 133.742188,18.125 C133.95573,17.052078 134.296873,16.1666702 134.765625,15.46875 C135.234377,14.7708298 135.838538,14.2578141 136.578125,13.9296875 C137.317712,13.6015609 138.213536,13.4375 139.265625,13.4375 C140.911467,13.4375 142.651033,13.8437459 144.484375,14.65625 L144.265625,19 C143.046869,18.4999975 142.015629,18.25 141.171875,18.25 Z M141.171875,18.25" id="Signoff" fill="#8CAB3B" sketch:type="MSShapeGroup"></path>
    </g>
</svg>